<svg aria-hidden="true" focusable="false" role="img" xmlns="http://www.w3.org/2000/svg" viewBox="100 170 350 130">
  <g>
    <path d="M108.73478,258.06026v22.69882h14.45784c13.59037,0 26.45786,-10.98796 31.08437,-23.27713l13.4458,-36.28919c1.44578,-3.90362 6.79519,-8.53013 11.13254,-8.53013h15.90363v-22.69882h-15.90363c-13.87953,0 -27.61448,10.40965 -32.38557,23.27713l-13.59037,36.28919c-1.15663,3.18073 -5.92772,8.53013 -9.68676,8.53013z"></path>
    <path d="M261.40963,189.24092c0,0 -12.7229,24.43376 -19.51809,36.43377l-15.75905,-36.43377h-25.01207l26.74701,61.735c-2.74699,3.46988 -8.38555,6.79519 -12.86748,6.79519h-13.01206v22.98797h13.01206c13.01206,0 27.46991,-8.53013 33.83136,-19.95183l3.46988,-6.21687l0.72289,-1.15663c5.20482,-8.81929 9.83133,-18.07231 14.747,-27.03617l19.80725,-37.15666z"></path>
    <path d="M264.01204,258.06026v22.69882h14.45784c13.59037,0 26.45786,-10.98796 31.08437,-23.27713l13.4458,-36.28919c1.44578,-3.90362 6.79519,-8.53013 11.13254,-8.53013h15.90363v-22.69882h-15.90363c-13.87953,0 -27.61448,10.40965 -32.38557,23.27713l-13.59037,36.28919c-1.15663,3.18073 -5.92772,8.53013 -9.68676,8.53013z"></path>
    <path d="M399.33747,210.06022c-9.68676,-13.30122 -25.73496,-20.67472 -42.07233,-20.67472v22.8434c12.7229,0 27.32533,8.81929 27.32533,22.8434c0,14.02411 -14.60242,22.69882 -27.32533,22.69882v22.98797c16.33736,0 32.38557,-7.3735 42.07233,-20.67472c9.54218,13.30122 25.59039,20.67472 41.92775,20.67472v-22.98797c-12.57833,0 -27.18075,-8.67471 -27.18075,-22.69882c0,-14.02411 14.60242,-22.8434 27.18075,-22.8434v-22.8434c-16.33736,0 -32.38557,7.3735 -41.92775,20.67472z" fill="#00D395"></path>
  </g>
</svg>